<?xml version="1.0" encoding="UTF-8"?>
<svg id="a" data-name="LOGO" xmlns="http://www.w3.org/2000/svg" viewBox="0 0 2904.29 242.44">
  <defs>
    <style>
      .b {
        fill: #000;
      }

      .b, .c {
        stroke-width: 0px;
      }

      .c {
        fill: #ce1619;
      }
    </style>
  </defs>
  <g>
    <path class="b" d="M502.87,188h-49.8s26.32-144.02,26.32-144.02h-1.41l-69.61,144.02h-43.57s-25.46-144.02-25.46-144.02h-1.7l-18.4,144.02h-49.8S299,0,299,0h79.79s17.37,118.1,17.37,118.1h1.98L450.66,0h81.77s-29.56,187.99-29.56,187.99Z"/>
    <path class="b" d="M561.24,67.8c10.24-8.17,27.06-12.26,50.45-12.26,24.14,0,41.31,3.29,51.5,9.87,10.19,6.58,13.17,23.3,8.95,50.17-3.96,25.18-9.76,43.78-17.4,55.8-7.65,12.02-26.46,18.04-56.45,18.03-23.39,0-40.31-3.39-50.75-10.15-10.44-6.76-13.61-23.2-9.5-49.32l2.3-14.66c3.69-23.49,10.66-39.32,20.91-47.49ZM581.55,128.53c-1.42,9.02-1.27,16.16.45,21.42,1.72,5.26,7.77,7.89,18.14,7.89,8.86,0,15.05-2.16,18.56-6.48,3.51-4.32,6.01-10.61,7.5-18.88.24-1.5.48-3.05.73-4.65.25-1.59.59-3.14,1.01-4.65.24-1.5.48-3.05.73-4.65.25-1.59.49-3.14.73-4.65,1.45-9.2,1.18-15.92-.79-20.15-1.98-4.23-7.87-6.34-17.68-6.34-10.75,0-17.69,2.72-20.81,8.17-3.12,5.45-5.45,13.06-6.99,22.83l-.58,3.66-1.02,6.48Z"/>
    <path class="b" d="M795.7,87.4h-50.08s-8.38,53.26-8.38,53.26c-.09.56-.16,1.03-.22,1.41-.06.38-.03.75.11,1.13-.09.56-.18,1.13-.27,1.69-.09.56-.18,1.13-.27,1.69-.29,3.01-.1,5.73.55,8.17.65,2.44,2.86,3.66,6.64,3.66,5.09,0,8.5-1.31,10.24-3.95,1.73-2.63,3.05-6.2,3.95-10.71.12-.75.24-1.55.38-2.4.13-.84.35-1.64.66-2.4.12-.75.24-1.55.38-2.4.13-.85.26-1.64.38-2.4l34.56-.28c-.18,1.13-.3,2.21-.37,3.24-.07,1.03-.18,2.02-.32,2.96-.15.94-.26,1.93-.32,2.96-.07,1.03-.18,2.02-.32,2.96-2.57,16.35-7.98,27.62-16.21,33.82-8.24,6.2-21.41,9.3-39.52,9.3-14.9,0-26.71-2.3-35.41-6.91-8.71-4.6-11.7-15.55-8.98-32.84l9.75-62h-16.13s4.87-31,4.87-31h16.13s4.34-27.62,4.34-27.62h43.01s-4.34,27.62-4.34,27.62h50.08s-4.87,31-4.87,31Z"/>
    <path class="b" d="M834.57,67.81c10.24-8.17,27.06-12.26,50.45-12.26,24.14,0,41.31,3.29,51.5,9.87,10.19,6.58,13.17,23.3,8.95,50.17-3.96,25.18-9.76,43.78-17.4,55.8-7.65,12.03-26.46,18.04-56.45,18.03-23.39,0-40.31-3.38-50.75-10.15-10.44-6.77-13.61-23.2-9.5-49.32l2.3-14.66c3.69-23.49,10.66-39.32,20.91-47.49ZM854.87,128.55c-1.42,9.02-1.27,16.16.45,21.42,1.72,5.26,7.77,7.89,18.14,7.89,8.86,0,15.05-2.16,18.56-6.48,3.51-4.32,6.01-10.61,7.5-18.88.24-1.5.48-3.05.73-4.65.25-1.59.59-3.14,1.01-4.65.24-1.5.48-3.05.73-4.65.25-1.59.49-3.14.73-4.65,1.45-9.2,1.18-15.92-.79-20.15-1.98-4.23-7.87-6.34-17.68-6.34-10.75,0-17.69,2.72-20.81,8.17-3.12,5.45-5.45,13.06-6.99,22.83l-.58,3.66-1.02,6.48Z"/>
    <path class="b" d="M1017.31,56.41l-3.62,19.45h1.98c4.49-6.95,9.44-12.07,14.86-15.36,5.42-3.29,12.19-4.93,20.3-4.93,16.22,0,25.1,4.75,26.62,14.23,1.52,9.49,1.54,20.15.06,31.99-.09.56-.17,1.08-.24,1.55-.07.47-.16.99-.24,1.55-.05,1.51-.2,3.06-.45,4.65-.25,1.6-.4,3.15-.45,4.65h-39.33c.24-.38.42-.85.5-1.41.09-.56.18-1.13.27-1.69.12-.75.23-1.45.33-2.11.1-.66.21-1.36.33-2.11.06-.37.13-.8.2-1.27.07-.47.15-.99.24-1.55.43-3.95.2-7.56-.7-10.85-.9-3.28-3.89-4.93-8.99-4.93s-9.24,1.79-11.88,5.35c-2.64,3.57-4.58,7.52-5.82,11.84-.18,1.13-.41,2.3-.7,3.52-.29,1.22-.52,2.4-.7,3.52l-11.88,75.53h-43.01s20.7-131.62,20.7-131.62h41.59Z"/>
    <path class="b" d="M1212.55,94.19h-40.75c-.16-.19-.22-.38-.19-.57.03-.19,0-.38-.05-.56-.07-.19-.08-.37-.05-.56-.27-4.32-1.74-6.95-4.42-7.89-2.68-.94-5.82-1.41-9.4-1.41h-7.92c-3.99.19-7.66.7-10.99,1.55-3.34.84-5.68,3.7-7.01,8.57-.97,6.18,1.6,9.89,7.73,11.1,6.13,1.22,13.51,1.93,22.16,2.11,1.85.19,3.73.28,5.61.28s3.85.1,5.9.28c10.66.56,20.18,3,28.56,7.31,8.38,4.31,11.36,14.15,8.94,29.51-3.18,20.24-11.82,32.89-25.92,37.95-14.09,5.06-29.54,7.59-46.32,7.58-17.17,0-31.81-1.93-43.94-5.78-12.13-3.85-16.58-16.02-13.36-36.5l43.9-.28c-1,6.39-.33,10.48,2.03,12.26,2.36,1.79,6.37,2.68,12.03,2.68h9.05c4.5.19,8.67-.28,12.53-1.41,3.86-1.13,6.21-4.42,7.07-9.89.95-6.03-.32-9.65-3.81-10.88-3.49-1.22-7.67-1.93-12.54-2.12l-8.73-.28c-16.26.19-29.91-1.74-40.97-5.79-11.06-4.05-15.05-15.87-11.97-35.47,3.05-19.4,11.19-30.98,24.42-34.75,13.23-3.77,27.58-5.65,43.05-5.65,3.21,0,6.69.05,10.45.14,3.75.1,7.49.33,11.21.71,9.85.94,18.57,3.62,26.18,8.03,7.6,4.42,10.49,12.45,8.66,24.1-.09.56-.17,1.08-.24,1.55-.07.47-.14.89-.2,1.27-.28.56-.45,1.08-.53,1.55-.07.47-.16.99-.24,1.55l.04-.28Z"/>
    <path class="b" d="M1289.79,56.43l-3.15,20.01h1.41c.71-.94,1.48-1.92,2.3-2.96.82-1.03,1.58-1.92,2.26-2.68,5.15-6.39,10.38-10.57,15.69-12.54,5.31-1.97,12.39-2.96,21.26-2.96,21.88,0,35.09,5.37,39.63,16.1,4.54,10.73,5.27,25.89,2.19,45.47-3.08,19.58-7.83,36.58-14.24,50.98-6.42,14.4-22.26,21.6-47.54,21.6-8.68,0-16.17-1.27-22.46-3.82-6.3-2.54-10.23-8.43-11.8-17.65l-1.65-.28-11.75,74.73h-44.42s29.25-186.01,29.25-186.01h43.01ZM1280.34,125.48c-1.42,9.02-1.42,16.49.01,22.41,1.43,5.92,7.89,8.88,19.4,8.88,10.19,0,16.84-2.72,19.96-8.17,3.12-5.45,5.36-12.49,6.72-21.14l1.2-7.61c.24-1.5.5-3.19.8-5.07.3-1.88.49-3.76.6-5.64.31-3.19.42-6.24.31-9.16-.11-2.91-.69-5.21-1.74-6.91-1.06-1.69-2.55-2.96-4.49-3.8-1.94-.85-4.13-1.36-6.55-1.55-.73-.19-1.51-.28-2.36-.28s-1.65,0-2.41,0c-9.24,0-16.04,1.55-20.4,4.65-4.36,3.1-7.51,10.85-9.46,23.25l-.66,4.23-.93,5.92Z"/>
    <path class="b" d="M1412.06,67.85c10.24-8.17,27.06-12.26,50.45-12.26,24.14,0,41.31,3.29,51.5,9.87,10.19,6.58,13.17,23.3,8.95,50.17-3.96,25.18-9.76,43.78-17.41,55.8-7.65,12.03-26.46,18.04-56.45,18.03-23.39,0-40.31-3.39-50.75-10.15-10.44-6.77-13.61-23.2-9.5-49.32l2.3-14.66c3.69-23.49,10.66-39.32,20.91-47.49ZM1432.36,128.59c-1.42,9.02-1.27,16.16.45,21.42,1.72,5.26,7.77,7.89,18.14,7.89,8.86,0,15.05-2.16,18.56-6.48,3.51-4.32,6.01-10.61,7.5-18.88.24-1.5.48-3.05.73-4.65.25-1.59.59-3.14,1.01-4.65.24-1.5.48-3.05.73-4.65.25-1.59.49-3.14.73-4.65,1.45-9.2,1.18-15.92-.79-20.15-1.98-4.23-7.87-6.34-17.68-6.34-10.75,0-17.69,2.72-20.81,8.17-3.12,5.45-5.45,13.06-6.99,22.83l-.58,3.66-1.02,6.48Z"/>
    <path class="b" d="M1594.8,56.45l-3.62,19.45h1.98c4.49-6.95,9.44-12.07,14.87-15.36,5.42-3.29,12.19-4.93,20.3-4.93,16.22,0,25.1,4.75,26.62,14.23,1.52,9.49,1.55,20.15.06,31.99-.09.56-.17,1.08-.24,1.55-.07.47-.16.99-.24,1.55-.05,1.51-.2,3.06-.45,4.65-.25,1.6-.4,3.15-.45,4.65h-39.33c.24-.38.42-.85.5-1.41.09-.56.18-1.13.27-1.69.12-.75.23-1.45.33-2.11.1-.66.21-1.36.33-2.11.06-.37.13-.8.2-1.27.07-.47.15-.99.24-1.55.43-3.95.2-7.56-.7-10.85-.9-3.28-3.89-4.93-8.99-4.93-5.28,0-9.24,1.79-11.88,5.35-2.64,3.57-4.58,7.52-5.82,11.84-.18,1.13-.41,2.3-.7,3.52-.29,1.22-.52,2.4-.69,3.52l-11.88,75.53h-43.01s20.7-131.62,20.7-131.62h41.59Z"/>
    <path class="b" d="M1777.8,87.46h-50.08s-8.38,53.26-8.38,53.26c-.09.56-.16,1.03-.22,1.41-.06.38-.03.75.11,1.13-.09.56-.18,1.13-.27,1.69-.09.56-.18,1.13-.27,1.69-.29,3.01-.1,5.73.55,8.17.65,2.44,2.86,3.66,6.64,3.66,5.09,0,8.5-1.31,10.24-3.95,1.73-2.63,3.05-6.2,3.95-10.71.12-.75.24-1.55.38-2.4.13-.84.35-1.64.66-2.4.12-.75.24-1.55.38-2.4.13-.85.26-1.64.38-2.4l34.57-.28c-.18,1.13-.3,2.21-.37,3.24-.07,1.03-.18,2.02-.32,2.96-.15.94-.26,1.93-.32,2.96-.07,1.03-.18,2.02-.32,2.96-2.57,16.35-7.98,27.62-16.21,33.82-8.24,6.2-21.41,9.3-39.52,9.3-14.9,0-26.71-2.3-35.41-6.91-8.71-4.6-11.7-15.55-8.99-32.84l9.75-62h-16.13s4.87-31,4.87-31h16.13s4.34-27.62,4.34-27.62h43.01s-4.34,27.62-4.34,27.62h50.08s-4.87,31.01-4.87,31.01Z"/>
    <path class="b" d="M1850.25,98.17l-6.69,42.56h-61.97s6.69-42.56,6.69-42.56h61.97Z"/>
    <path class="c" d="M1939.67,188.08h-50.65s22.73-144.58,22.73-144.58h-47.82S1870.77.09,1870.77.09h149.4s-6.82,43.41-6.82,43.41h-50.93s-22.73,144.58-22.73,144.58Z"/>
    <path class="c" d="M2022.67,67.89c10.24-8.17,27.06-12.26,50.45-12.26,24.14,0,41.31,3.29,51.5,9.87,10.19,6.58,13.17,23.3,8.95,50.17-3.96,25.18-9.76,43.78-17.41,55.8-7.65,12.03-26.46,18.04-56.45,18.03-23.39,0-40.31-3.39-50.75-10.15-10.44-6.77-13.61-23.2-9.5-49.32l2.3-14.66c3.69-23.49,10.66-39.32,20.91-47.49ZM2042.97,128.62c-1.42,9.02-1.27,16.16.45,21.42,1.72,5.26,7.77,7.89,18.14,7.89,8.86,0,15.05-2.16,18.56-6.48,3.51-4.32,6.01-10.61,7.5-18.88.24-1.5.48-3.05.73-4.65.25-1.59.59-3.14,1.01-4.65.24-1.5.48-3.05.73-4.65.25-1.59.49-3.14.73-4.65,1.45-9.2,1.18-15.92-.79-20.15-1.98-4.23-7.87-6.34-17.68-6.34-10.75,0-17.69,2.72-20.81,8.17-3.12,5.45-5.45,13.06-6.99,22.83l-.58,3.66-1.02,6.48Z"/>
    <path class="c" d="M2171.78,67.89c10.24-8.17,27.06-12.26,50.45-12.26,24.14,0,41.31,3.29,51.5,9.87,10.19,6.58,13.17,23.3,8.95,50.17-3.96,25.18-9.76,43.78-17.41,55.8-7.65,12.03-26.46,18.04-56.45,18.03-23.39,0-40.31-3.39-50.75-10.15-10.44-6.77-13.61-23.2-9.5-49.32l2.3-14.66c3.69-23.49,10.66-39.32,20.91-47.49ZM2192.08,128.63c-1.42,9.02-1.27,16.16.45,21.42,1.72,5.26,7.77,7.89,18.14,7.89,8.86,0,15.05-2.16,18.56-6.48,3.51-4.32,6.01-10.61,7.5-18.88.24-1.5.48-3.05.73-4.65.25-1.59.59-3.14,1.01-4.65.24-1.5.48-3.05.73-4.65.25-1.59.49-3.14.73-4.65,1.45-9.2,1.18-15.92-.79-20.15-1.98-4.23-7.87-6.34-17.68-6.34-10.75,0-17.69,2.72-20.81,8.17-3.12,5.45-5.45,13.06-6.99,22.83l-.58,3.66-1.02,6.48Z"/>
    <path class="c" d="M2334.95,188.11h-43.01S2321.5.12,2321.5.12h43.01s-29.56,187.99-29.56,187.99Z"/>
    <path class="c" d="M2495.43,94.27h-40.75c-.16-.19-.22-.38-.19-.57.03-.19.01-.38-.05-.56-.07-.19-.08-.37-.05-.56-.27-4.32-1.74-6.95-4.42-7.89-2.68-.94-5.82-1.41-9.4-1.41h-7.92c-3.99.19-7.66.7-10.99,1.55-3.34.85-5.68,3.7-7.01,8.57-.97,6.18,1.6,9.89,7.73,11.1,6.13,1.22,13.51,1.92,22.16,2.11,1.85.19,3.73.28,5.61.28s3.85.1,5.9.28c10.66.56,20.18,3,28.56,7.31,8.38,4.31,11.36,14.15,8.94,29.52-3.18,20.24-11.82,32.89-25.92,37.95-14.09,5.06-29.54,7.59-46.32,7.59-17.17,0-31.81-1.93-43.94-5.78-12.13-3.85-16.58-16.02-13.36-36.5l43.9-.28c-1,6.39-.33,10.48,2.03,12.26,2.36,1.79,6.37,2.68,12.03,2.68h9.05c4.5.19,8.67-.28,12.53-1.41,3.86-1.13,6.21-4.42,7.07-9.89.95-6.03-.32-9.65-3.81-10.88-3.49-1.22-7.67-1.93-12.54-2.12l-8.73-.28c-16.26.19-29.91-1.74-40.97-5.79-11.06-4.05-15.05-15.87-11.97-35.47,3.05-19.4,11.19-30.98,24.42-34.75,13.23-3.77,27.58-5.65,43.05-5.65,3.21,0,6.69.05,10.45.14,3.75.1,7.49.33,11.21.71,9.85.94,18.57,3.62,26.18,8.03,7.6,4.42,10.49,12.45,8.66,24.1-.09.56-.17,1.08-.24,1.55-.07.47-.14.89-.2,1.27-.28.56-.45,1.08-.53,1.55-.07.47-.16.99-.24,1.55l.04-.28Z"/>
    <path class="b" d="M2531.25,188.12h-28.52s4.75-30.19,4.75-30.19h28.52s-4.75,30.19-4.75,30.19Z"/>
    <path class="b" d="M2610.7,151.43h29.31c-2.13,13.55-6.16,23.22-12.09,29-5.93,5.79-16.09,8.68-30.48,8.68-16.77,0-29.18-2.34-37.22-7.01-8.05-4.67-10.57-16.54-7.57-35.61,2.65-16.83,7.15-29.56,13.53-38.17,6.37-8.61,18.87-12.92,37.49-12.92,14.13,0,24.9,1.81,32.32,5.43,7.42,3.62,9.85,13.58,7.28,29.89l-29.08-.2c.77-4.86.36-8.19-1.21-9.96-1.57-1.78-5-2.66-10.28-2.66-7,0-11.58,1.61-13.73,4.83-2.16,3.22-3.76,8.19-4.82,14.89l-1.55,9.86c-.97,6.18-1.02,10.92-.15,14.21.87,3.29,4.87,4.93,12,4.93,6.21,0,10.25-1.15,12.13-3.45,1.88-2.3,3.24-6.15,4.09-11.54l.03-.2Z"/>
    <path class="b" d="M2667.58,103.99c7.17-5.72,18.94-8.58,35.32-8.58,16.9,0,28.92,2.3,36.05,6.91,7.13,4.61,9.22,16.31,6.26,35.12-2.77,17.63-6.83,30.65-12.18,39.06-5.35,8.42-18.52,12.63-39.52,12.63-16.37,0-28.22-2.37-35.53-7.1-7.31-4.74-9.53-16.24-6.65-34.53l1.61-10.26c2.59-16.44,7.46-27.52,14.64-33.24ZM2681.79,146.5c-.99,6.31-.89,11.31.32,14.99,1.2,3.68,5.43,5.52,12.7,5.53,6.21,0,10.54-1.51,12.99-4.54,2.45-3.02,4.2-7.43,5.25-13.22.17-1.05.34-2.14.51-3.25.18-1.12.41-2.2.71-3.26.17-1.05.34-2.14.51-3.25.18-1.12.35-2.2.51-3.25,1.01-6.44.83-11.15-.56-14.11-1.39-2.96-5.51-4.44-12.37-4.44-7.53,0-12.38,1.91-14.57,5.72-2.18,3.82-3.81,9.14-4.89,15.98l-.4,2.56-.71,4.54Z"/>
    <path class="b" d="M2795.69,96l-2.05,13.02h.79c2.59-4.73,6.26-8.12,11.01-10.16,4.74-2.04,9.64-3.19,14.7-3.45h2.38c6.73,0,12.66.92,17.79,2.76,5.12,1.84,7.18,6.84,6.16,14.99l1.42-.2c2.13-6.84,6.03-11.47,11.69-13.91,5.66-2.43,11.6-3.65,17.81-3.65,11.09,0,18.64,2.57,22.66,7.7,4.01,5.13,5.18,13.02,3.51,23.67l-9.65,61.36h-30.11s8.13-51.69,8.13-51.69c.76-4.86.92-8.98.45-12.33-.46-3.35-3.8-5.03-10-5.03-4.89,0-8.63,1.35-11.23,4.04-2.6,2.7-4.27,6.35-4.99,10.95l-8.5,54.06h-30.11s8.53-54.26,8.53-54.26c.68-4.34.78-7.89.29-10.65-.49-2.76-3.44-4.14-8.86-4.14-5.02,0-8.88,1.05-11.59,3.16-2.71,2.11-4.52,6.05-5.43,11.84l-8.5,54.06h-30.11s14.49-92.13,14.49-92.13h29.31Z"/>
  </g>
  <polygon class="c" points="62.13 187.92 0 187.92 7.39 140.95 69.52 140.95 62.13 187.92"/>
  <polygon class="c" points="131.65 140.95 69.52 140.95 76.9 93.97 139.03 93.97 131.65 140.95"/>
  <polygon class="c" points="76.9 93.97 14.77 93.97 22.16 47 84.29 47 76.9 93.97"/>
  <polygon class="c" points="146.42 47 84.29 47 91.68 .02 153.8 .02 146.42 47"/>
  <polygon class="c" points="201.16 93.97 139.03 93.97 146.42 47 208.55 47 201.16 93.97"/>
  <polygon class="c" points="270.68 47 208.55 47 215.94 .02 278.07 .02 270.68 47"/>
  <polygon class="c" points="186.39 187.92 124.26 187.92 131.65 140.95 193.78 140.95 186.39 187.92"/>
  <polygon class="c" points="255.9 140.95 193.78 140.95 201.16 93.97 263.29 93.97 255.9 140.95"/>
</svg>