<?xml version="1.0" encoding="UTF-8"?>
<svg xmlns="http://www.w3.org/2000/svg" version="1.1" xmlns:serif="http://www.serif.com/" viewBox="0 0 1920 1080">
  <defs>
    <style>
      .cls-1 {
        stroke: #fff;
        stroke-miterlimit: 10;
        stroke-width: 3px;
      }

      .cls-1, .cls-2 {
        fill: #fff;
      }

      .cls-3 {
        fill: #ce181c;
      }

      .cls-3, .cls-4, .cls-2, .cls-5 {
        stroke-width: 0px;
      }

      .cls-4 {
        fill: none;
      }

      .cls-4, .cls-6 {
        display: none;
      }

      .cls-5 {
        fill: #cd2027;
      }
    </style>
  </defs>
  <g id="Layer_1" data-name="Layer 1" class="cls-6">
    <rect id="Artboard1" class="cls-4" y="314.9" width="1918.3" height="448.7"/>
    <g id="Layer-2" serif:id="Layer 2">
      <g>
        <path class="cls-3" d="M211.3,632.3H75.7l-28.6,89.6h135.7l28.6-89.6Z"/>
        <path class="cls-3" d="M375.6,542.7h-135.7l-28.6,89.6h135.7l28.6-89.6h0Z"/>
        <path class="cls-3" d="M482.7,632.3h-135.7l-28.6,89.6h135.7l28.6-89.6Z"/>
        <path class="cls-3" d="M268.5,453.2h-135.7l-28.6,89.6h135.7l28.6-89.6h0Z"/>
        <path class="cls-3" d="M539.8,453.2h-135.7l-28.6,89.6h135.7l28.6-89.6Z"/>
        <path class="cls-3" d="M646.9,542.7h-135.7l-28.6,89.6h135.7l28.6-89.6h0Z"/>
        <path class="cls-3" d="M432.8,363.6h-135.7l-28.6,89.6h135.7l28.6-89.6h0Z"/>
        <path class="cls-3" d="M704.1,363.6h-135.7l-28.6,89.6h135.7s28.6-89.6,28.6-89.6Z"/>
      </g>
      <g>
        <path class="cls-2" d="M1175,360.1l-114.7,364.6h-96.2s94.8-279.3,94.8-279.3h-2.7l-178.4,279.3h-84.2s-5.3-279.3-5.3-279.3h-3.3l-79.5,279.3h-96.2s114.7-364.6,114.7-364.6h154.1s-2.7,229-2.7,229h3.8l137.7-229h158s0,0,0,0Z"/>
        <path class="cls-2" d="M1489,473.8h-92.9c1.7-4.4,2.8-8.4,3.3-12,.5-3.6.9-6.7,1-9.3-.2-2.9-.7-5.4-1.3-7.4-.6-2-1.6-3.7-3-5.2-1.4-1.1-3.2-2.1-5.3-3-2.1-.9-4.7-1.5-7.6-1.9-3.2-.7-6.6-1.3-10-1.6-3.4-.4-7.4-.5-11.7-.5l-9.8-1.1-1.1,1.1h-9.3l-12.1,1.6c-2.9.4-5.8.9-8.6,1.6-2.8.7-5.6,1.5-8.6,2.2-2.9.7-5.6,1.9-8.1,3.6-2.4,1.6-4.6,3.6-6.6,5.7-1.9,2.6-3.7,5.3-5.3,8.2s-3,6.4-4.3,10.4c-.9,2.9-1.6,5.6-2.3,8.2-.7,2.6-1,4.7-1.1,6.6-.1,2.2,0,4.1.3,5.7.3,1.6.8,3.2,1.4,4.6.7,1.5,1.6,2.7,2.8,3.8,1.2,1.1,2.7,2,4.5,2.7,1.8.7,3.8,1.4,5.9,1.9s4.7.8,7.6.8c1.4.4,2.8.6,4.1.8,1.3.2,2.6.3,4.1.3h8.7c.4,0,.8,0,1.4.3.5.2,1,.3,1.4.3.7,0,1.5,0,2.4.3.9.2,1.9.3,3,.3h13.7c9.1.4,17.9,1,26.4,1.9,8.5.9,16.8,2.1,24.7,3.6,7.6,1.5,15.1,3.1,22.4,4.9,7.4,1.8,14.5,3.8,21.3,6,6.8,2.6,12.3,6.3,16.4,11.2,4.1,4.9,6.9,11,8.4,18.3,1.5,7.7,1.6,16.4.4,26.2-1.2,9.8-3.7,21-7.6,33.3-.4.7-.7,1.5-.9,2.2-.2.7-.5,1.5-.9,2.2v1.6c-.5.4-.7.6-.7.8,0,.2,0,.5,0,.8-.4.7-.7,1.5-.9,2.2s-.3,1.5-.4,2.2c0,.4-.1.7-.3,1.1-.2.4-.3.5-.3.5-.4.4-.6.7-.6,1.1,0,.4,0,.7,0,1.1-.4.7-.7,1.5-.9,2.2s-.3,1.5-.4,2.2c-.4.4-.7.8-.9,1.4-.2.5-.5,1.2-.9,1.9,0,.4-.1.6-.3.8s-.3.5-.3.8c-.4.4-.7.8-.9,1.4s-.3,1-.3,1.4c0,.4-.1.7-.3,1.1-.2.4-.3.5-.3.5,0,.4-.1.7-.3,1.1-.2.4-.3.7-.3,1.1l-7.4,16.9-9.5,16.4c-1.6,2.6-3.4,5.2-5.6,7.9-2.1,2.7-4.3,5.2-6.6,7.4-2.3,2.2-4.6,4.3-6.9,6.3-2.3,2-4.9,3.9-7.9,5.7-3.8,2.6-7.4,4.8-11,6.8-3.6,2-7.4,3.9-11.5,5.7-2.2,1.1-4.7,2.1-7.5,3l-11.6,3.6c-1.3.4-2.7.7-4.2,1.1-3.7.7-7.4,1.4-11.3,1.9-3.9.5-7.8,1.2-11.8,1.9l-15.3.5-7.7.5h-4.9c-.7,0-1.5.2-2.2.5h-19.1l-24.1.5c-12.4-.4-24-.8-34.9-1.4-10.9-.5-21.1-1.4-30.5-2.5-9.1-1.1-17.2-2.7-24.4-4.9-7.2-2.2-13.6-4.6-19.3-7.1-5.7-2.9-10.1-7.1-13.3-12.6-3.2-5.5-5-12.6-5.3-21.3-.7-8.7.2-18.9,2.5-30.3,2.4-11.5,5.7-24.5,10.1-39.1l93-1.1c-.9,3.6-1.7,7-2.4,10.1-.7,3.1-1.3,6.1-1.8,9-.5,2.6-.6,5.1-.4,7.7.2,2.6.7,4.7,1.3,6.6.6,1.8,1.6,3.5,2.8,4.9,1.2,1.5,3.1,2.7,5.6,3.8,2.1,1.1,4.7,1.8,7.8,2.2,3.1.4,6.4.5,10.1.5l42.7-1.1c.3.4.7.5,1.1.5h3.8c2.6,0,5,0,7.4-.3,2.4-.2,4.7-.5,6.9-.8l8.8-2.2c.7-.4,1.5-.6,2.2-.8.7-.2,1.5-.5,2.2-.8,2.6-.7,4.9-2,7-3.8,2.1-1.8,4.1-4,6.1-6.6,2-2.9,3.7-6,5.4-9.3,1.6-3.3,3.1-6.9,4.3-10.9,1.3-4,2.2-7.5,2.7-10.4.5-2.9.5-5.6-.2-8.2-.3-2.2-.8-4.1-1.6-5.7-.8-1.6-2.1-2.8-3.9-3.6-1.4-.7-3.2-1.5-5.4-2.2-2.2-.7-4.5-1.3-7-1.6-2.5-.7-5.1-1.2-7.9-1.4-2.7-.2-5.5-.5-8.4-.8h-13.1c-1.5,0-2.9,0-4.4-.3-1.4-.2-2.9-.5-4.3-.8h-10.1c-.5,0-1.2-.2-1.9-.5-.7,0-1.4,0-1.9-.3-.5-.2-1.2-.3-1.9-.3-10.5-.7-20.4-1.6-29.7-2.7-9.2-1.1-17.7-2.4-25.2-3.8-7.6-1.8-14.6-3.8-21-6-6.5-2.2-12.4-4.6-17.7-7.1-5-2.9-8.9-7-11.7-12.3-2.8-5.3-4.4-11.9-4.8-20-.3-8.4.5-17.9,2.4-28.4,2-10.6,5.1-22.6,9.4-36.1,2.6-8,5.4-15.6,8.5-22.7,3.1-7.1,6.2-13.6,9.4-19.4,3.6-6.2,7.5-11.8,11.7-16.7,4.2-4.9,8.8-9.6,13.8-13.9,4.9-4,10.2-7.7,15.8-10.9,5.6-3.3,11.6-6.2,17.9-8.7,6.3-2.2,13.3-4.1,21-5.7,7.7-1.6,15.8-2.8,24.2-3.6h3.6c1.3,0,2.7-.2,4.1-.5h7.7c2.9,0,5.7,0,8.5-.3,2.7-.2,5.4-.5,8-.8h10.1c.5,0,1.2-.2,1.9-.5h6.8c.5,0,1.2-.2,1.9-.5h12c10.6,0,20.6.4,30,1.1,9.4.7,18.3,1.6,26.7,2.7,8.3,1.1,16.2,2.5,23.6,4.1,7.4,1.6,14.3,3.6,20.8,5.7,6.1,2.6,11,6.3,14.8,11.2,3.8,4.9,6.2,11.2,7.3,18.9,1.1,7.7.9,16.6-.5,26.8-1.4,10.2-4,21.7-7.9,34.4-.4.4-.6.6-.6.8v1.4c-.4.4-.6.6-.7.8v.8c-.4.4-.6.5-.6.5v1.1c-.4.4-.7.6-.9.8-.2.2-.3.5-.3.8,0,.4,0,.6,0,.8,0,.2-.2.5-.6.8v1.1c-.4.4-.6.6-.6.8v.8s0-1.1,0-1.1h0Z"/>
        <path class="cls-2" d="M1722.5,444.3l-88.3,280.4h-97.8s88.3-280.4,88.3-280.4h-92.4s26.4-84.2,26.4-84.2h288.6s-26.4,84.2-26.4,84.2h-98.4s0,0,0,0Z"/>
      </g>
    </g>
  </g>
  <g id="Layer_2" data-name="Layer 2">
    <g>
      <g>
        <path class="cls-1" d="M723.4,718.9h-95.6l113.7-358.5h151.5l-3.1,225.1h3.3l136.5-225.1h155.3l-113.7,358.5h-95.6l96.8-275.3h-3.3l-178.1,275.3h-82.7l-4.5-275.3h-2.9l-77.7,275.3Z"/>
        <path class="cls-1" d="M1361.9,501c25.9,1.9,46.9,4.5,63,7.9,16.1,3.3,27.9,8.6,35.6,15.8,7.7,7.2,11.4,17.1,11.2,29.9-.2,12.7-3.6,29.3-10.2,49.7-2.9,9.9-6.2,19.7-9.8,29.4-3.6,9.7-8,18.9-13.4,27.5-5.4,8.6-12.3,16.7-20.9,24.1-8.6,7.5-19.5,13.9-32.6,19.4-13.2,5.4-29.2,9.6-48.2,12.7-19,3-41.5,4.5-67.6,4.5s-29.5-.2-42.7-.7c-13.2-.5-25.1-1.8-35.7-4.1-10.6-2.2-19.5-5.8-26.8-10.8-7.3-4.9-12.6-11.9-16-20.8-3.4-8.9-4.6-20.1-3.6-33.5.9-13.4,4.5-29.9,10.7-49.7h91.8c-2.9,9.2-4.3,16.6-4.2,22,0,5.4,2,9.6,5.9,12.4,3.8,2.9,9.5,4.7,16.9,5.5,7.4.8,17,1.2,28.8,1.2s20.7-.3,28.5-1c7.9-.6,14.5-2.1,19.8-4.3,5.3-2.2,9.7-5.5,13-9.8,3.3-4.3,6.2-10.3,8.6-17.9,2.4-7.6,3.8-13.5,4.2-17.7.5-4.5-.7-7.7-3.5-9.8-2.8-2.1-7.5-3.4-13.9-4.1-6.5-.6-15.2-1.3-26.3-1.9l-20.4-1.4c-21.5-1.6-40.7-3.3-57.5-5.3-16.8-1.9-30.2-6.2-40-12.9-9.8-6.7-15.7-17-17.6-30.8-1.9-13.9,1.2-33.7,9.4-59.5,8.1-25.8,18-46,29.8-60.5,11.7-14.5,25.3-25.4,40.7-32.7,15.4-7.3,32.7-11.9,51.9-13.6,19.1-1.7,40.5-2.6,64.1-2.6s37.8.6,55,1.7c17.2,1.1,31.5,4.9,42.8,11.2,11.3,6.4,18.6,16.3,21.9,29.9,3.4,13.5,1.2,32.7-6.5,57.6l-4.9,14.8h-91.8c2.9-9.2,4.2-16.3,3.9-21.3-.3-4.9-2.2-8.6-5.8-11-3.6-2.4-8.7-3.7-15.3-4.1-6.7-.3-14.8-.5-24.3-.5s-23.5.6-31.3,1.9c-7.8,1.3-14,3.2-18.5,5.7-4.6,2.6-8,5.7-10.3,9.6-2.3,3.8-4.2,8.3-5.7,13.4-2.4,7.3-3.3,13-2.7,17,.5,4,2.1,6.9,4.8,8.8,2.7,1.9,6.3,3.3,10.8,4.1,4.5.8,10,1.4,16.3,1.7l38.9,2.9Z"/>
        <path class="cls-1" d="M1630.1,718.9h-95.6l87.2-275.3h-91.8l26.4-83.2h283.9l-26.4,83.2h-96.5l-87.2,275.3Z"/>
      </g>
      <g id="Layer-2-2" data-name="Layer-2" serif:id="Layer 2">
        <g>
          <path class="cls-5" d="M208.8,631.6H69.5l-29.4,92h139.4l29.4-92Z"/>
          <path class="cls-5" d="M377.6,539.6h-139.4l-29.4,92h139.4l29.4-92Z"/>
          <path class="cls-5" d="M487.6,631.6h-139.4l-29.4,92h139.4l29.4-92Z"/>
          <path class="cls-5" d="M267.6,447.6h-139.4l-29.4,92h139.4l29.4-92Z"/>
          <path class="cls-5" d="M546.3,447.6h-139.4l-29.4,92h139.4l29.4-92Z"/>
          <path class="cls-5" d="M656.4,539.6h-139.4l-29.4,92h139.4l29.4-92h0Z"/>
          <path class="cls-5" d="M436.3,355.6h-139.4l-29.4,92h139.4l29.4-92h0Z"/>
          <path class="cls-5" d="M715.1,355.6h-139.4l-29.4,92h139.4l29.4-92h0Z"/>
        </g>
      </g>
    </g>
  </g>
</svg>